<?xml version="1.0" encoding="UTF-8"?>
<svg width="29px" height="28px" viewBox="0 0 29 28" version="1.1" xmlns="http://www.w3.org/2000/svg" xmlns:xlink="http://www.w3.org/1999/xlink">
    <!-- Generator: sketchtool 53.2 (72643) - https://sketchapp.com -->
    <title>9207BB47-020D-418A-8DC3-8AE8A79D3413</title>
    <desc>Created with sketchtool.</desc>
    <g id="Visuel" stroke="none" stroke-width="1" fill="none" fill-rule="evenodd">
        <g id="My-Coach-prog" transform="translate(-321.000000, -806.000000)" fill="#49C4A8">
            <g id="Options-coach" transform="translate(-5.000000, 798.000000)">
                <g id="options">
                    <g id="notifications-icon/simple-vert/Edit" transform="translate(324.568365, 6.000000)">
                        <g id="Glyphs-/-Home-Screen-Quick-Actions-/-Compose-2" transform="translate(2.010724, 2.000000)">
                            <g id="Glyphs-/-Home-Screen-Quick-Actions-/-Compose">
                                <path d="M27.6953745,1.15927778 L26.8696373,0.339166667 C26.4149903,-0.113055556 25.671581,-0.113055556 25.216934,0.339166667 L24.3924255,1.15927778 L26.8696373,3.6245 L27.6953745,2.80316667 C28.1500215,2.35216667 28.1500215,1.61394444 27.6953745,1.15927778 L27.6953745,1.15927778 Z M24.372766,2.84105556 L23.5470287,2.01972222 L10.9975424,14.4876111 C10.9975424,14.4876111 10.4359919,15.4739444 10.2271,16.1730556 C9.9174485,17.2107222 9.821604,18.0992778 9.821604,18.0992778 C9.821604,18.0992778 10.8611483,18.0699444 11.8945486,17.7362778 C12.5531724,17.5248333 13.4747542,16.9528333 13.4747542,16.9528333 L26.0254694,4.48616667 L25.1985033,3.66483333 L24.372766,2.84105556 Z M22.1007597,24.8422778 C22.1007597,25.1722778 21.8193701,25.4533889 21.4863719,25.4533889 L3.07193925,25.4533889 C2.73894103,25.4533889 2.4575514,25.1722778 2.4575514,24.8422778 L2.4575514,6.49794444 C2.4575514,6.16672222 2.73894103,5.88683333 3.07193925,5.88683333 L16.6880028,5.88683333 L19.0325068,3.44238889 L3.07193925,3.44238889 C1.37868633,3.44238889 2.28592834e-13,4.8125 2.28592834e-13,6.49794444 L2.28592834e-13,24.8422778 C2.28592834e-13,26.5265 1.37868633,27.8978333 3.07193925,27.8978333 L21.4863719,27.8978333 C23.1808536,27.8978333 24.5583111,26.5265 24.5583111,24.8422778 L24.5583111,8.94238889 L22.1007597,11.3196111 L22.1007597,24.8422778 Z" id="compose" style="mix-blend-mode: color-burn;"></path>
                            </g>
                        </g>
                    </g>
                </g>
            </g>
        </g>
    </g>
</svg>