<?xml version="1.0" encoding="UTF-8"?>
<svg width="18px" height="18px" viewBox="0 0 18 18" version="1.1" xmlns="http://www.w3.org/2000/svg" xmlns:xlink="http://www.w3.org/1999/xlink">
    <!-- Generator: sketchtool 53.2 (72643) - https://sketchapp.com -->
    <title>707C501C-C236-4932-8E89-DCFDE5C19778</title>
    <desc>Created with sketchtool.</desc>
    <g id="Visuel" stroke="none" stroke-width="1" fill="none" fill-rule="evenodd">
        <g id="My-Prog-infos" transform="translate(-331.000000, -263.000000)" fill="#6B6B6B">
            <g id="icon/simple-gris/pen" transform="translate(324.000000, 256.000000)">
                <g id="Glyphs-/-Home-Screen-Quick-Actions-/-Compose-2" transform="translate(7.000000, 7.000000)">
                    <path d="M16.8427368,1.09826316 L16.0646316,0.321315789 C15.6362105,-0.107105263 14.9356842,-0.107105263 14.5072632,0.321315789 L13.7303158,1.09826316 L16.0646316,3.43373684 L16.8427368,2.65563158 C17.2711579,2.22836842 17.2711579,1.529 16.8427368,1.09826316 L16.8427368,1.09826316 Z M13.7117895,2.69152632 L12.9336842,1.91342105 L1.10810526,13.7251053 C1.10810526,13.7251053 0.578947368,14.6595263 0.382105263,15.3218421 C0.0903157895,16.3048947 -2.84217094e-14,17.1466842 -2.84217094e-14,17.1466842 C-2.84217094e-14,17.1466842 0.979578947,17.1188947 1.95336842,16.8027895 C2.574,16.6024737 3.44242105,16.0605789 3.44242105,16.0605789 L15.2691579,4.25005263 L14.4898947,3.47194737 L13.7117895,2.69152632 Z" id="compose" style="mix-blend-mode: color-burn;"></path>
                </g>
            </g>
        </g>
    </g>
</svg>